<?xml version="1.0" encoding="UTF-8"?>
<svg version="1.1" xmlns="http://www.w3.org/2000/svg" width="512" height="512">
<path d="M0 0 C47.19 0 94.38 0 143 0 C137.37641723 10.12244898 137.37641723 10.12244898 134.94140625 13.91796875 C134.12639648 15.19317383 134.12639648 15.19317383 133.29492188 16.49414062 C132.72322266 17.38294922 132.15152344 18.27175781 131.5625 19.1875 C130.31373202 21.13927809 129.06503613 23.09110231 127.81640625 25.04296875 C127.18234863 26.03216309 126.54829102 27.02135742 125.89501953 28.04052734 C122.91969483 32.68712436 119.96026383 37.34379956 117 42 C115.83603255 43.82948756 114.67196977 45.65891447 113.5078125 47.48828125 C112.93063477 48.39529785 112.35345703 49.30231445 111.75878906 50.23681641 C109.98298753 53.02672781 108.20642613 55.81615406 106.4296875 58.60546875 C100.93840686 67.22774274 95.45391721 75.85403331 90 84.5 C82.77132674 95.95944572 75.4884348 107.38429455 68.20898438 118.81152344 C60.11172046 131.52378531 52.04194771 144.25265736 44 157 C38.06 166.405 38.06 166.405 32 176 C71.6 176 111.2 176 152 176 C147.50207929 182.74688106 147.50207929 182.74688106 145.37109375 185.19140625 C144.89905518 185.73692139 144.4270166 186.28243652 143.94067383 186.84448242 C143.44462646 187.41142822 142.9485791 187.97837402 142.4375 188.5625 C141.36683541 189.79917442 140.29653099 191.03616075 139.2265625 192.2734375 C138.68805664 192.89444336 138.14955078 193.51544922 137.59472656 194.15527344 C135.14926813 196.98409829 132.72794653 199.83303727 130.3125 202.6875 C129.8572998 203.2252002 129.40209961 203.76290039 128.93310547 204.31689453 C126.10829716 207.6628927 123.32467437 211.03942938 120.5625 214.4375 C116.15086945 219.85570579 111.60676358 225.1527085 107.05078125 230.44921875 C100.80572679 237.71031003 94.6036885 245.00553429 88.5625 252.4375 C84.15086945 257.85570579 79.60676358 263.1527085 75.05078125 268.44921875 C68.80572679 275.71031003 62.6036885 283.00553429 56.5625 290.4375 C52.1485377 295.85856956 47.60217195 301.15841974 43.04296875 306.45703125 C38.78648075 311.40558716 34.57832994 316.3947854 30.36767578 321.38232422 C28.97540583 323.02908979 27.57994527 324.67310067 26.18359375 326.31640625 C21.93259941 331.32234652 17.70435708 336.3404038 13.5625 341.4375 C9.15086945 346.85570579 4.60676358 352.1527085 0.05078125 357.44921875 C-6.19427321 364.71031003 -12.3963115 372.00553429 -18.4375 379.4375 C-22.84913055 384.85570579 -27.39323642 390.1527085 -31.94921875 395.44921875 C-38.19427321 402.71031003 -44.3963115 410.00553429 -50.4375 417.4375 C-54.84913055 422.85570579 -59.39323642 428.1527085 -63.94921875 433.44921875 C-70.19427321 440.71031003 -76.3963115 448.00553429 -82.4375 455.4375 C-86.84913055 460.85570579 -91.39323642 466.1527085 -95.94921875 471.44921875 C-102.9557705 479.59569885 -109.86949479 487.81061338 -116.65234375 496.14453125 C-121.04003634 501.48130877 -125.52385012 506.73738641 -130 512 C-130.66 511.67 -131.32 511.34 -132 511 C-131.19606018 509.09593201 -130.39212036 507.19186401 -129.58818054 505.28779602 C-129.23294815 504.44645615 -128.87771576 503.60511627 -128.51171875 502.73828125 C-124.23486328 492.60888672 -119.95800781 482.47949219 -115.68115234 472.35009766 C-115.23302185 471.28873596 -114.78489136 470.22737427 -114.32318115 469.1338501 C-113.06262207 466.14831543 -111.80206299 463.16278076 -110.54150391 460.17724609 C-109.95240738 458.78201469 -109.95240738 458.78201469 -109.35140991 457.3585968 C-108.56839527 455.50409217 -107.78537526 453.64958981 -107.00234985 451.79508972 C-105.04538554 447.1602401 -103.08851761 442.52534982 -101.13183594 437.89038086 C-97.56011987 429.42998904 -93.98773384 420.96988343 -90.41186523 412.51124573 C-88.41994803 407.79935907 -86.42856203 403.08724808 -84.4375 398.375 C-84.04467834 397.44531403 -83.65185669 396.51562805 -83.24713135 395.55776978 C-77.05090805 380.88976694 -70.89658376 366.20455878 -64.75726318 351.51266479 C-57.53418586 334.23197011 -50.21730098 316.99194775 -42.87677002 299.76087952 C-40.75326442 294.77453588 -38.63682219 289.78526235 -36.52734375 284.79296875 C-36.26389664 284.16952072 -36.00044952 283.54607269 -35.72901917 282.9037323 C-34.52931592 280.06378583 -33.33068888 277.22338883 -32.13305664 274.38256836 C-31.52578735 272.94409546 -31.52578735 272.94409546 -30.90625 271.4765625 C-30.55884766 270.65236816 -30.21144531 269.82817383 -29.85351562 268.97900391 C-29.27406272 267.63545549 -28.65435281 266.30870563 -28 265 C-62.32 265 -96.64 265 -132 265 C-121.66192478 243.17517454 -121.66192478 243.17517454 -117.24815369 234.37605286 C-116.73818692 233.3552649 -116.22822016 232.33447695 -115.70279986 231.28275603 C-114.03283948 227.94121847 -112.36006879 224.60109665 -110.68725586 221.26098633 C-109.47372466 218.83476745 -108.26080185 216.40824457 -107.04785156 213.98173523 C-104.45631714 208.79814683 -101.86334123 203.61528174 -99.26933098 198.4329319 C-95.51901805 190.94049903 -91.77096474 183.44693756 -88.02342875 175.95311543 C-81.94044634 163.78932901 -75.85568508 151.62643337 -69.76977539 139.46411133 C-63.86453064 127.66282752 -57.96014678 115.86111364 -52.05688477 104.05883789 C-51.68814387 103.3216241 -51.31940297 102.5844103 -50.93948811 101.8248567 C-48.05488742 96.05773523 -45.17033599 90.29058912 -42.2858001 84.52343524 C-28.19319433 56.34762511 -14.09630014 28.1739626 0 0 Z " fill="#ECBA16" transform="translate(246,0)"/>
</svg>
